<?xml version="1.0" encoding="UTF-8"?>
<svg version="1.1" xmlns="http://www.w3.org/2000/svg" width="144" height="144">
<path d="M0 0 C8.58 0 17.16 0 26 0 C26 9 26 9 25 11 C24.76725791 13.87910588 24.58027243 16.74146495 24.4375 19.625 C24.39431641 20.42679688 24.35113281 21.22859375 24.30664062 22.0546875 C24.20048543 24.0362511 24.09973145 26.01810271 24 28 C28.95 28 33.9 28 39 28 C37.45957252 23.19695965 37.45957252 23.19695965 35 21 C34.67247766 18.28545044 34.8691575 15.74769241 35 13 C36 12 36 12 39.0625 11.9375 C40.5165625 11.9684375 40.5165625 11.9684375 42 12 C42 12.99 42 13.98 42 15 C42.66 15 43.32 15 44 15 C44 14.01 44 13.02 44 12 C46.64 12 49.28 12 52 12 C52 12.99 52 13.98 52 15 C52.66 15 53.32 15 54 15 C54 14.01 54 13.02 54 12 C59.33333333 12 64.66666667 12 70 12 C70.08131463 13.43655854 70.13933559 14.8744483 70.1875 16.3125 C70.23970703 17.51326172 70.23970703 17.51326172 70.29296875 18.73828125 C69.9333405 21.51461134 69.05689932 22.19496591 67 24 C66.28552357 26.10332891 66.28552357 26.10332891 66 28 C67.65614657 28.38218767 69.32457024 28.71395102 71 29 C71.495 28.505 71.495 28.505 72 28 C73.85287502 27.92773498 75.70833878 27.9161878 77.5625 27.9375 C78.57441406 27.94652344 79.58632812 27.95554687 80.62890625 27.96484375 C81.41136719 27.97644531 82.19382812 27.98804687 83 28 C82.8595017 25.2079699 82.71284617 22.41650204 82.5625 19.625 C82.52318359 18.8309375 82.48386719 18.036875 82.44335938 17.21875 C82.31106596 12.97398779 82.31106596 12.97398779 81 9 C81 6.03 81 3.06 81 0 C89.58 0 98.16 0 107 0 C107 9 107 9 106 11 C105.88213309 12.48012824 105.82307062 13.96516466 105.79467773 15.44970703 C105.77473251 16.37051056 105.75478729 17.29131409 105.73423767 18.24002075 C105.71752518 19.23589203 105.70081268 20.23176331 105.68359375 21.2578125 C105.6524221 22.78509476 105.6524221 22.78509476 105.62062073 24.3432312 C105.55510534 27.60375055 105.49623098 30.86435206 105.4375 34.125 C105.39431668 36.33203983 105.35070245 38.53907128 105.30664062 40.74609375 C105.19942195 46.16397501 105.09765926 51.58193846 105 57 C105.66 57 106.32 57 107 57 C107 58.98 107 60.96 107 63 C108.32 63 109.64 63 111 63 C111 64.98 111 66.96 111 69 C73.05 69 35.1 69 -4 69 C-4 67.02 -4 65.04 -4 63 C-3.01 63 -2.02 63 -1 63 C-1 61.02 -1 59.04 -1 57 C-0.01 57 0.98 57 2 57 C1.88256977 50.62778921 1.75773553 44.25575472 1.62768555 37.88378906 C1.58430081 35.71487744 1.54262839 33.54593087 1.50268555 31.37695312 C1.44506861 28.26421565 1.38134962 25.15165465 1.31640625 22.0390625 C1.29969376 21.065065 1.28298126 20.0910675 1.26576233 19.08755493 C1.24581711 18.18677216 1.22587189 17.28598938 1.20532227 16.35791016 C1.18977798 15.56293121 1.1742337 14.76795227 1.15821838 13.94888306 C1.11558275 11.92002226 1.11558275 11.92002226 0 10 C0 6.7 0 3.4 0 0 Z " fill="#52421E" transform="translate(18,13)"/>
<path d="M0 0 C9.24 0 18.48 0 28 0 C27.34 3.3 26.68 6.6 26 10 C27.32 10 28.64 10 30 10 C30 11.32 30 12.64 30 14 C34.95 14.33 39.9 14.66 45 15 C45 15.66 45 16.32 45 17 C24.04229194 19.11843595 24.04229194 19.11843595 17.65625 14.03125 C16.07236237 12.82577611 16.07236237 12.82577611 14.21875 13.09375 C11.75912974 14.00934943 11.75912974 14.00934943 8.93359375 16.078125 C4.13838267 18.91043659 -0.56225091 18.21294011 -5.9375 17.75 C-6.90751953 17.68425781 -7.87753906 17.61851563 -8.87695312 17.55078125 C-11.25346099 17.38688416 -13.62655493 17.20286401 -16 17 C-16 17.66 -16 18.32 -16 19 C-10.06 19 -4.12 19 2 19 C1.67 21.64 1.34 24.28 1 27 C2.65 27 4.3 27 6 27 C6 30.63 6 34.26 6 38 C6.66 38 7.32 38 8 38 C8 33.38 8 28.76 8 24 C6.68 24 5.36 24 4 24 C4 22.35 4 20.7 4 19 C5.38481328 18.12808053 6.78345246 17.27809616 8.1875 16.4375 C8.96480469 15.96183594 9.74210937 15.48617187 10.54296875 14.99609375 C13.65198748 13.73568075 14.83481762 13.91680425 18 15 C19.04285156 15.67546875 20.08570313 16.3509375 21.16015625 17.046875 C25.74870389 19.7982622 30.22842813 19.44501205 35.4375 19.25 C36.35982422 19.23195313 37.28214844 19.21390625 38.23242188 19.1953125 C40.48873597 19.14854951 42.74450916 19.07681899 45 19 C45 25.27 45 31.54 45 38 C44.34 38 43.68 38 43 38 C43 39.65 43 41.3 43 43 C42.34 43 41.68 43 41 43 C41 44.32 41 45.64 41 47 C14.27 47 -12.46 47 -40 47 C-40 46.01 -40 45.02 -40 44 C-38.02 43.505 -38.02 43.505 -36 43 C-36.33 41.68 -36.66 40.36 -37 39 C-36.01 39 -35.02 39 -34 39 C-34 37.68 -34 36.36 -34 35 C-32.68 35 -31.36 35 -30 35 C-30 30.38 -30 25.76 -30 21 C-31.32 21 -32.64 21 -34 21 C-34 16.38 -34 11.76 -34 7 C-32.35 7 -30.7 7 -29 7 C-28.67 16.9 -28.34 26.8 -28 37 C-26.02 37 -24.04 37 -22 37 C-21.67 36.34 -21.34 35.68 -21 35 C-19.02 34.505 -19.02 34.505 -17 34 C-16.67 29.71 -16.34 25.42 -16 21 C-17.65 21 -19.3 21 -21 21 C-21 16.38 -21 11.76 -21 7 C-19.35 7 -17.7 7 -16 7 C-16 7.99 -16 8.98 -16 10 C-14.68 10 -13.36 10 -12 10 C-12 11.32 -12 12.64 -12 14 C-7.05 14.33 -2.1 14.66 3 15 C3 14.34 3 13.68 3 13 C1.68 13 0.36 13 -1 13 C-1 12.01 -1 11.02 -1 10 C0.32 10 1.64 10 3 10 C3 7.69 3 5.38 3 3 C2.01 2.67 1.02 2.34 0 2 C0 1.34 0 0.68 0 0 Z " fill="#CC9C0F" transform="translate(56,33)"/>
<path d="M0 0 C0.74886475 0.00523682 1.49772949 0.01047363 2.26928711 0.01586914 C3.36188843 0.01961548 3.36188843 0.01961548 4.4765625 0.0234375 C5.40718506 0.0325415 6.33780762 0.04164551 7.29663086 0.05102539 C11.72069336 0.08196289 11.72069336 0.08196289 16.23413086 0.11352539 C18.21413086 6.71352539 20.19413086 13.31352539 22.23413086 20.11352539 C23.83837133 13.90661139 23.83837133 13.90661139 25.43505859 7.69775391 C25.63558838 6.92874756 25.83611816 6.15974121 26.04272461 5.36743164 C26.34907837 4.18129272 26.34907837 4.18129272 26.66162109 2.97119141 C27.23413086 1.11352539 27.23413086 1.11352539 28.23413086 0.11352539 C34.17413086 0.11352539 40.11413086 0.11352539 46.23413086 0.11352539 C46.23413086 14.63352539 46.23413086 29.15352539 46.23413086 44.11352539 C42.27413086 44.11352539 38.31413086 44.11352539 34.23413086 44.11352539 C33.90413086 37.51352539 33.57413086 30.91352539 33.23413086 24.11352539 C31.9612123 29.57275808 31.9612123 29.57275808 30.69140625 35.03271484 C30.53148193 35.71551514 30.37155762 36.39831543 30.20678711 37.10180664 C30.0444458 37.79830322 29.88210449 38.4947998 29.71484375 39.21240234 C29.29647521 40.86696599 28.77381717 42.49446647 28.23413086 44.11352539 C24.27413086 44.11352539 20.31413086 44.11352539 16.23413086 44.11352539 C14.58413086 37.84352539 12.93413086 31.57352539 11.23413086 25.11352539 C10.90413086 31.38352539 10.57413086 37.65352539 10.23413086 44.11352539 C5.94413086 44.11352539 1.65413086 44.11352539 -2.76586914 44.11352539 C-2.79051427 38.00797829 -2.80870285 31.90245988 -2.82080078 25.796875 C-2.82584202 23.71809383 -2.83267488 21.63931623 -2.84130859 19.56054688 C-2.85338336 16.57949953 -2.85909938 13.5984989 -2.86352539 10.61743164 C-2.87126732 9.2143148 -2.87126732 9.2143148 -2.87916565 7.78285217 C-2.87924118 6.92203537 -2.87931671 6.06121857 -2.87939453 5.17431641 C-2.88161514 4.41264664 -2.88383575 3.65097687 -2.88612366 2.8662262 C-2.72142568 0.46576514 -2.40099862 0.15435702 0 0 Z " fill="#193F98" transform="translate(58.765869140625,82.886474609375)"/>
<path d="M0 0 C11.88 0 23.76 0 36 0 C36 3.63 36 7.26 36 11 C29.07 11 22.14 11 15 11 C15 12.65 15 14.3 15 16 C21.6 16 28.2 16 35 16 C35 19.3 35 22.6 35 26 C28.4 26 21.8 26 15 26 C15 27.98 15 29.96 15 32 C22.26 32 29.52 32 37 32 C37 35.96 37 39.92 37 44 C24.79 44 12.58 44 0 44 C0 29.48 0 14.96 0 0 Z " fill="#193F98" transform="translate(15,83)"/>
<path d="M0 0 C9.24 0 18.48 0 28 0 C27.34 3.3 26.68 6.6 26 10 C27.32 10 28.64 10 30 10 C30 11.32 30 12.64 30 14 C34.95 14.33 39.9 14.66 45 15 C45 15.66 45 16.32 45 17 C24.04229194 19.11843595 24.04229194 19.11843595 17.65625 14.03125 C16.07236237 12.82577611 16.07236237 12.82577611 14.21875 13.09375 C11.75912974 14.00934943 11.75912974 14.00934943 8.93359375 16.078125 C4.13838267 18.91043659 -0.56225091 18.21294011 -5.9375 17.75 C-6.90751953 17.68425781 -7.87753906 17.61851563 -8.87695312 17.55078125 C-11.25346099 17.38688416 -13.62655493 17.20286401 -16 17 C-16 17.66 -16 18.32 -16 19 C-10.06 19 -4.12 19 2 19 C2 19.33 2 19.66 2 20 C-3.61 20 -9.22 20 -15 20 C-15 25.61 -15 31.22 -15 37 C-9.39 37 -3.78 37 2 37 C0.82639601 40.52081197 0.20693953 41.23138129 -3 43 C-5.62145494 43.25630289 -7.99526167 43.3506943 -10.609375 43.29296875 C-11.33618469 43.28872391 -12.06299438 43.28447906 -12.81182861 43.28010559 C-15.12493504 43.2633613 -17.43715855 43.22571885 -19.75 43.1875 C-21.32160197 43.17244758 -22.89321764 43.15876015 -24.46484375 43.14648438 C-28.31023415 43.11347195 -32.15496756 43.06172056 -36 43 C-36.33 41.68 -36.66 40.36 -37 39 C-36.01 39 -35.02 39 -34 39 C-34 37.68 -34 36.36 -34 35 C-32.68 35 -31.36 35 -30 35 C-30 30.38 -30 25.76 -30 21 C-31.32 21 -32.64 21 -34 21 C-34 16.38 -34 11.76 -34 7 C-32.35 7 -30.7 7 -29 7 C-28.67 16.9 -28.34 26.8 -28 37 C-26.02 37 -24.04 37 -22 37 C-21.67 36.34 -21.34 35.68 -21 35 C-19.02 34.505 -19.02 34.505 -17 34 C-16.67 29.71 -16.34 25.42 -16 21 C-17.65 21 -19.3 21 -21 21 C-21 16.38 -21 11.76 -21 7 C-19.35 7 -17.7 7 -16 7 C-16 7.99 -16 8.98 -16 10 C-14.68 10 -13.36 10 -12 10 C-12 11.32 -12 12.64 -12 14 C-7.05 14.33 -2.1 14.66 3 15 C3 14.34 3 13.68 3 13 C1.68 13 0.36 13 -1 13 C-1 12.01 -1 11.02 -1 10 C0.32 10 1.64 10 3 10 C3 7.69 3 5.38 3 3 C2.01 2.67 1.02 2.34 0 2 C0 1.34 0 0.68 0 0 Z " fill="#CE9E11" transform="translate(56,33)"/>
<path d="M0 0 C8.25 0 16.5 0 25 0 C23.68 0.33 22.36 0.66 21 1 C21 1.99 21 2.98 21 4 C19.68 4 18.36 4 17 4 C17 3.34 17 2.68 17 2 C16.01 2 15.02 2 14 2 C14 2.66 14 3.32 14 4 C12.68 4 11.36 4 10 4 C10 3.34 10 2.68 10 2 C9.34 2 8.68 2 8 2 C8 2.66 8 3.32 8 4 C6.35 4 4.7 4 3 4 C3 3.34 3 2.68 3 2 C2.34 2 1.68 2 1 2 C1.32597168 3.08732422 1.65194336 4.17464844 1.98779297 5.29492188 C3.31364173 10.62638031 3.2512556 15.81487208 3.1953125 21.28125 C3.1924826 22.33534058 3.18965271 23.38943115 3.18673706 24.47546387 C3.17560986 27.8170951 3.15051904 31.15845081 3.125 34.5 C3.11496056 36.77603778 3.1058364 39.05207978 3.09765625 41.328125 C3.075695 46.88550947 3.04229229 52.44273504 3 58 C2.01 58 1.02 58 0 58 C0 59.65 0 61.3 0 63 C11.55 63 23.1 63 35 63 C35 63.33 35 63.66 35 64 C22.79 64 10.58 64 -2 64 C-2 64.99 -2 65.98 -2 67 C24.73 67 51.46 67 79 67 C79 65.68 79 64.36 79 63 C79.66 63 80.32 63 81 63 C81 61.35 81 59.7 81 58 C81.66 58 82.32 58 83 58 C83 59.65 83 61.3 83 63 C90.59 63 98.18 63 106 63 C106 61.35 106 59.7 106 58 C105.34 58 104.68 58 104 58 C103.505 56.02 103.505 56.02 103 54 C101.68 54 100.36 54 99 54 C99 49.71 99 45.42 99 41 C100.32 41 101.64 41 103 41 C103 36.38 103 31.76 103 27 C101.68 27 100.36 27 99 27 C98.97309896 24.20826945 98.95320947 21.41679652 98.9375 18.625 C98.92912109 17.8309375 98.92074219 17.036875 98.91210938 16.21875 C98.88671875 10.2265625 98.88671875 10.2265625 100 8 C94.06 8 88.12 8 82 8 C82 5.69 82 3.38 82 1 C82.99 1 83.98 1 85 1 C85 1.99 85 2.98 85 4 C86.32 4 87.64 4 89 4 C89 3.34 89 2.68 89 2 C89.66 2 90.32 2 91 2 C91 2.66 91 3.32 91 4 C92.65 4 94.3 4 96 4 C96 3.34 96 2.68 96 2 C96.99 2 97.98 2 99 2 C99 2.66 99 3.32 99 4 C99.99 4 100.98 4 102 4 C102 3.34 102 2.68 102 2 C103.32 2 104.64 2 106 2 C105.67 20.15 105.34 38.3 105 57 C105.66 57 106.32 57 107 57 C107 58.98 107 60.96 107 63 C108.32 63 109.64 63 111 63 C111 64.98 111 66.96 111 69 C73.05 69 35.1 69 -4 69 C-4 67.02 -4 65.04 -4 63 C-3.01 63 -2.02 63 -1 63 C-1 61.02 -1 59.04 -1 57 C-0.01 57 0.98 57 2 57 C1.88256977 50.62778921 1.75773553 44.25575472 1.62768555 37.88378906 C1.58430081 35.71487744 1.54262839 33.54593087 1.50268555 31.37695312 C1.44506861 28.26421565 1.38134962 25.15165465 1.31640625 22.0390625 C1.29969376 21.065065 1.28298126 20.0910675 1.26576233 19.08755493 C1.24581711 18.18677216 1.22587189 17.28598938 1.20532227 16.35791016 C1.18977798 15.56293121 1.1742337 14.76795227 1.15821838 13.94888306 C1.11558275 11.92002226 1.11558275 11.92002226 0 10 C0 6.7 0 3.4 0 0 Z " fill="#50401B" transform="translate(18,13)"/>
<path d="M0 0 C0 2.97 0 5.94 0 9 C-0.66 9 -1.32 9 -2 9 C-2.33 9.99 -2.66 10.98 -3 12 C-4.98 12 -6.96 12 -9 12 C-9.33 26.85 -9.66 41.7 -10 57 C-13.465 57.495 -13.465 57.495 -17 58 C-17 47.77 -17 37.54 -17 27 C-18.65 27 -20.3 27 -22 27 C-22 31.62 -22 36.24 -22 41 C-20.68 41 -19.36 41 -18 41 C-18 45.62 -18 50.24 -18 55 C-19.32 55 -20.64 55 -22 55 C-22 56.32 -22 57.64 -22 59 C-22.99 59 -23.98 59 -25 59 C-24.67 60.32 -24.34 61.64 -24 63 C-24.66 63 -25.32 63 -26 63 C-26 61.35 -26 59.7 -26 58 C-25.01 58 -24.02 58 -23 58 C-23.11741384 51.20055159 -23.24224834 44.40126887 -23.37231445 37.60205078 C-23.41570376 35.28762931 -23.45737584 32.973175 -23.49731445 30.65869141 C-23.55492032 27.33746427 -23.61864251 24.01640308 -23.68359375 20.6953125 C-23.70866249 19.13588425 -23.70866249 19.13588425 -23.73423767 17.54495239 C-23.75418289 16.58410736 -23.77412811 15.62326233 -23.79467773 14.63330078 C-23.81022202 13.78502716 -23.8257663 12.93675354 -23.84178162 12.06277466 C-23.87429958 9.93681695 -23.87429958 9.93681695 -25 8 C-25.039992 6.00039988 -25.04346799 3.99952758 -25 2 C-24.34 2 -23.68 2 -23 2 C-23 2.66 -23 3.32 -23 4 C-21.35 4 -19.7 4 -18 4 C-18 3.34 -18 2.68 -18 2 C-17.34 2 -16.68 2 -16 2 C-16 2.66 -16 3.32 -16 4 C-14.68 4 -13.36 4 -12 4 C-12 3.34 -12 2.68 -12 2 C-11.01 2 -10.02 2 -9 2 C-9 2.66 -9 3.32 -9 4 C-7.68 4 -6.36 4 -5 4 C-5 3.01 -5 2.02 -5 1 C-1.125 0 -1.125 0 0 0 Z " fill="#95741A" transform="translate(44,13)"/>
<path d="M0 0 C4.62 0 9.24 0 14 0 C13.67 10.56 13.34 21.12 13 32 C11.02 32 9.04 32 7 32 C7.33 36.62 7.66 41.24 8 46 C10.475 45.505 10.475 45.505 13 45 C13.33 31.14 13.66 17.28 14 3 C15.65 3 17.3 3 19 3 C17.68 3.33 16.36 3.66 15 4 C15 8.62 15 13.24 15 18 C16.32 18 17.64 18 19 18 C19 22.62 19 27.24 19 32 C17.68 32 16.36 32 15 32 C15 36.29 15 40.58 15 45 C16.32 45 17.64 45 19 45 C19 41.37 19 37.74 19 34 C19.33 34 19.66 34 20 34 C20 38.95 20 43.9 20 49 C20.66 49 21.32 49 22 49 C22 50.65 22 52.3 22 54 C14.41 54 6.82 54 -1 54 C-1 52.35 -1 50.7 -1 49 C-0.34 49 0.32 49 1 49 C0.67 40.75 0.34 32.5 0 24 C-0.99 24 -1.98 24 -3 24 C-3 23.01 -3 22.02 -3 21 C-1.68 21 -0.36 21 1 21 C1 20.01 1 19.02 1 18 C2.65 18 4.3 18 6 18 C6 13.71 6 9.42 6 5 C4.35 5 2.7 5 1 5 C0.67 3.35 0.34 1.7 0 0 Z " fill="#947315" transform="translate(102,22)"/>
<path d="M0 0 C4.62 0 9.24 0 14 0 C14 14.52 14 29.04 14 44 C9.05 44 4.1 44 -1 44 C-1.02464513 37.8944529 -1.04283371 31.78893449 -1.05493164 25.68334961 C-1.05997288 23.60456844 -1.06680574 21.52579084 -1.07543945 19.44702148 C-1.08751422 16.46597414 -1.09323024 13.48497351 -1.09765625 10.50390625 C-1.10539818 9.10078941 -1.10539818 9.10078941 -1.11329651 7.66932678 C-1.11337204 6.80850998 -1.11344757 5.94769318 -1.11352539 5.06079102 C-1.115746 4.29912125 -1.11796661 3.53745148 -1.12025452 2.75270081 C-1 1 -1 1 0 0 Z " fill="#193F98" transform="translate(113,83)"/>
<path d="M0 0 C1.04285156 0.67546875 2.08570313 1.3509375 3.16015625 2.046875 C7.74870389 4.7982622 12.22842813 4.44501205 17.4375 4.25 C18.35982422 4.23195313 19.28214844 4.21390625 20.23242188 4.1953125 C22.48873597 4.14854951 24.74450916 4.07681899 27 4 C27 9.94 27 15.88 27 22 C21.39 22 15.78 22 10 22 C10 19.36 10 16.72 10 14 C10.66 13.67 11.32 13.34 12 13 C12 15.31 12 17.62 12 20 C13.32 20 14.64 20 16 20 C16 16.04 16 12.08 16 8 C14.35 8.66 12.7 9.32 11 10 C8.23451242 9.97104201 5.74279896 9.46488118 3 9 C3 13.29 3 17.58 3 22 C-1.29 22 -5.58 22 -10 22 C-10 17.71 -10 13.42 -10 9 C-11.32 9 -12.64 9 -14 9 C-14 7.35 -14 5.7 -14 4 C-12.61518672 3.12808053 -11.21654754 2.27809616 -9.8125 1.4375 C-8.64654297 0.72400391 -8.64654297 0.72400391 -7.45703125 -0.00390625 C-4.34801252 -1.26431925 -3.16518238 -1.08319575 0 0 Z " fill="#E2AE0E" transform="translate(74,48)"/>
<path d="M0 0 C0.94148531 2.82445592 1.07311695 4.14171618 0.87890625 7.01171875 C0.83056641 7.76904297 0.78222656 8.52636719 0.73242188 9.30664062 C0.67634766 10.09232422 0.62027344 10.87800781 0.5625 11.6875 C0.51029297 12.48478516 0.45808594 13.28207031 0.40429688 14.10351562 C0.27480978 16.06936522 0.13809959 18.03473665 0 20 C4.95 20 9.9 20 15 20 C13.45957252 15.19695965 13.45957252 15.19695965 11 13 C10.67247766 10.28545044 10.8691575 7.74769241 11 5 C12 4 12 4 15.0625 3.9375 C16.5165625 3.9684375 16.5165625 3.9684375 18 4 C18 4.99 18 5.98 18 7 C18.66 7 19.32 7 20 7 C20 6.01 20 5.02 20 4 C22.64 4 25.28 4 28 4 C28 4.99 28 5.98 28 7 C28.66 7 29.32 7 30 7 C30 6.01 30 5.02 30 4 C33.3125 3.6875 33.3125 3.6875 37 4 C38.9375 6.5 38.9375 6.5 40 9 C38.35 9 36.7 9 35 9 C35 7.68 35 6.36 35 5 C33.68 5 32.36 5 31 5 C31 6.32 31 7.64 31 9 C29.35 9 27.7 9 26 9 C26 8.01 26 7.02 26 6 C24.68 6 23.36 6 22 6 C22 6.99 22 7.98 22 9 C20.02 9 18.04 9 16 9 C16 8.01 16 7.02 16 6 C15.01 6 14.02 6 13 6 C13.26393501 9.43230448 13.26393501 9.43230448 14 13 C14.99 13.66 15.98 14.32 17 15 C17.1875 18.625 17.1875 18.625 17 22 C15.68 22 14.36 22 13 22 C13 22.99 13 23.98 13 25 C14.32 25 15.64 25 17 25 C17 25.66 17 26.32 17 27 C11.06 27 5.12 27 -1 27 C-0.01 26.67 0.98 26.34 2 26 C2 24.68 2 23.36 2 22 C0.68 22 -0.64 22 -2 22 C-2 21.01 -2 20.02 -2 19 C-3.65 19 -5.3 19 -7 19 C-7 23.62 -7 28.24 -7 33 C-5.35 33 -3.7 33 -2 33 C-2 37.29 -2 41.58 -2 46 C-4.475 46.495 -4.475 46.495 -7 47 C-7.33 47.99 -7.66 48.98 -8 50 C-8 34.49 -8 18.98 -8 3 C-5.69 3.33 -3.38 3.66 -1 4 C-0.67 2.68 -0.34 1.36 0 0 Z " fill="#715921" transform="translate(42,21)"/>
<path d="M0 0 C4.62 0 9.24 0 14 0 C14 1.32 14 2.64 14 4 C12.02 4 10.04 4 8 4 C7.67 18.85 7.34 33.7 7 49 C5.02 49 3.04 49 1 49 C0.67 32.83 0.34 16.66 0 0 Z " fill="#CC9C11" transform="translate(27,21)"/>
<path d="M0 0 C1.65 0 3.3 0 5 0 C5.33 9.9 5.66 19.8 6 30 C15.9 30 25.8 30 36 30 C34.82639601 33.52081197 34.20693953 34.23138129 31 36 C28.37854506 36.25630289 26.00473833 36.3506943 23.390625 36.29296875 C22.66381531 36.28872391 21.93700562 36.28447906 21.18817139 36.28010559 C18.87506496 36.2633613 16.56284145 36.22571885 14.25 36.1875 C12.67839803 36.17244758 11.10678236 36.15876015 9.53515625 36.14648438 C5.68976585 36.11347195 1.84503244 36.06172056 -2 36 C-2.33 34.68 -2.66 33.36 -3 32 C-2.01 32 -1.02 32 0 32 C0 30.68 0 29.36 0 28 C1.32 28 2.64 28 4 28 C4 23.38 4 18.76 4 14 C2.68 14 1.36 14 0 14 C0 9.38 0 4.76 0 0 Z " fill="#BA8E11" transform="translate(22,40)"/>
<path d="M0 0 C8.25 0 16.5 0 25 0 C23.68 0.33 22.36 0.66 21 1 C21 1.99 21 2.98 21 4 C19.68 4 18.36 4 17 4 C17 3.34 17 2.68 17 2 C16.01 2 15.02 2 14 2 C14 2.66 14 3.32 14 4 C12.68 4 11.36 4 10 4 C10 3.34 10 2.68 10 2 C9.34 2 8.68 2 8 2 C8 2.66 8 3.32 8 4 C6.35 4 4.7 4 3 4 C3 3.34 3 2.68 3 2 C2.34 2 1.68 2 1 2 C1.32597168 3.08732422 1.65194336 4.17464844 1.98779297 5.29492188 C3.31364173 10.62638031 3.2512556 15.81487208 3.1953125 21.28125 C3.1924826 22.33534058 3.18965271 23.38943115 3.18673706 24.47546387 C3.17560986 27.8170951 3.15051904 31.15845081 3.125 34.5 C3.11496056 36.77603778 3.1058364 39.05207978 3.09765625 41.328125 C3.075695 46.88550947 3.04229229 52.44273504 3 58 C2.01 58 1.02 58 0 58 C0 59.65 0 61.3 0 63 C11.55 63 23.1 63 35 63 C35 63.33 35 63.66 35 64 C22.46 64 9.92 64 -3 64 C-3 65.32 -3 66.64 -3 68 C34.29 68 71.58 68 110 68 C110.495 66.02 110.495 66.02 111 64 C111 65.65 111 67.3 111 69 C73.05 69 35.1 69 -4 69 C-4 67.02 -4 65.04 -4 63 C-3.01 63 -2.02 63 -1 63 C-1 61.02 -1 59.04 -1 57 C-0.01 57 0.98 57 2 57 C1.88256977 50.62778921 1.75773553 44.25575472 1.62768555 37.88378906 C1.58430081 35.71487744 1.54262839 33.54593087 1.50268555 31.37695312 C1.44506861 28.26421565 1.38134962 25.15165465 1.31640625 22.0390625 C1.29969376 21.065065 1.28298126 20.0910675 1.26576233 19.08755493 C1.24581711 18.18677216 1.22587189 17.28598938 1.20532227 16.35791016 C1.18977798 15.56293121 1.1742337 14.76795227 1.15821838 13.94888306 C1.11558275 11.92002226 1.11558275 11.92002226 0 10 C0 6.7 0 3.4 0 0 Z " fill="#292424" transform="translate(18,13)"/>
<path d="M0 0 C1.65 0 3.3 0 5 0 C3.68 0.33 2.36 0.66 1 1 C1 5.62 1 10.24 1 15 C2.32 15 3.64 15 5 15 C5 19.62 5 24.24 5 29 C3.68 29 2.36 29 1 29 C1 33.29 1 37.58 1 42 C2.32 42 3.64 42 5 42 C5 38.37 5 34.74 5 31 C5.33 31 5.66 31 6 31 C6 35.95 6 40.9 6 46 C6.66 46 7.32 46 8 46 C8 47.65 8 49.3 8 51 C0.41 51 -7.18 51 -15 51 C-15 49.35 -15 47.7 -15 46 C-14.34 46 -13.68 46 -13 46 C-13 45.01 -13 44.02 -13 43 C-10.525 42.505 -10.525 42.505 -8 42 C-8 43.32 -8 44.64 -8 46 C-7.34 46 -6.68 46 -6 46 C-6 45.01 -6 44.02 -6 43 C-3.525 42.505 -3.525 42.505 -1 42 C-0.67 28.14 -0.34 14.28 0 0 Z " fill="#BD9112" transform="translate(116,25)"/>
<path d="M0 0 C0.99 0 1.98 0 3 0 C3 0.99 3 1.98 3 3 C4.32 3 5.64 3 7 3 C7 2.34 7 1.68 7 1 C7.66 1 8.32 1 9 1 C9 1.66 9 2.32 9 3 C10.65 3 12.3 3 14 3 C14 2.34 14 1.68 14 1 C14.99 1 15.98 1 17 1 C17 1.66 17 2.32 17 3 C17.99 3 18.98 3 20 3 C20 2.34 20 1.68 20 1 C21.32 1 22.64 1 24 1 C23.8453125 2.15757813 23.690625 3.31515625 23.53125 4.5078125 C22.74298081 11.60501082 22.67508716 18.74224353 22.5 25.875 C22.27616908 34.94747397 21.98746234 43.97143048 21 53 C19.68 53 18.36 53 17 53 C17 48.71 17 44.42 17 40 C18.32 40 19.64 40 21 40 C21 35.38 21 30.76 21 26 C19.68 26 18.36 26 17 26 C16.97309896 23.20826945 16.95320947 20.41679652 16.9375 17.625 C16.92912109 16.8309375 16.92074219 16.036875 16.91210938 15.21875 C16.88671875 9.2265625 16.88671875 9.2265625 18 7 C12.06 7 6.12 7 0 7 C0 4.69 0 2.38 0 0 Z " fill="#937117" transform="translate(100,14)"/>
<path d="M0 0 C7.26 0 14.52 0 22 0 C22 1.65 22 3.3 22 5 C23.32 5 24.64 5 26 5 C26 6.32 26 7.64 26 9 C30.95 9.33 35.9 9.66 41 10 C41 10.66 41 11.32 41 12 C20.04229194 14.11843595 20.04229194 14.11843595 13.65625 9.03125 C12.02954856 7.77876261 12.02954856 7.77876261 9.94140625 8.24609375 C7.8300673 9.00036816 7.8300673 9.00036816 5.4375 10.5625 C3 12 3 12 0 12 C0 8.04 0 4.08 0 0 Z " fill="#F0B80D" transform="translate(60,38)"/>
<path d="M0 0 C0.99 0 1.98 0 3 0 C3 3.96 3 7.92 3 12 C1.68 12 0.36 12 -1 12 C-1.33 10.02 -1.66 8.04 -2 6 C-2.33 8.64 -2.66 11.28 -3 14 C2.61 14 8.22 14 14 14 C14 14.33 14 14.66 14 15 C8.39 15 2.78 15 -3 15 C-3 15.66 -3 16.32 -3 17 C-11.25 17 -19.5 17 -28 17 C-27.67 13.04 -27.34 9.08 -27 5 C-26.34 5 -25.68 5 -25 5 C-25 8.3 -25 11.6 -25 15 C-24.34 14.67 -23.68 14.34 -23 14 C-18.66396021 13.8606671 -14.33919329 13.95745889 -10 14 C-10 9.71 -10 5.42 -10 1 C-8.535625 1.020625 -7.07125 1.04125 -5.5625 1.0625 C-4.04167482 1.08392007 -2.51928038 1.07179964 -1 1 C-0.67 0.67 -0.34 0.34 0 0 Z " fill="#C19410" transform="translate(87,56)"/>
<path d="M0 0 C2.16796875 1.63671875 2.16796875 1.63671875 4 4 C4.23597424 8.44060616 3.53253587 12.56220112 3 17 C-1.29 17 -5.58 17 -10 17 C-10.13501894 14.56065775 -10.23403897 12.12875896 -10.3125 9.6875 C-10.35439453 8.99720703 -10.39628906 8.30691406 -10.43945312 7.59570312 C-10.48828125 5.57421875 -10.48828125 5.57421875 -10 2 C-6.52315294 -0.92423561 -4.28350783 -1.64750301 0 0 Z " fill="#EFB70D" transform="translate(74,53)"/>
<path d="M0 0 C4.62 0 9.24 0 14 0 C13.67 10.56 13.34 21.12 13 32 C11.35 32 9.7 32 8 32 C8 27.38 8 22.76 8 18 C9.32 18 10.64 18 12 18 C12 13.71 12 9.42 12 5 C10.68 5 9.36 5 8 5 C8 8.96 8 12.92 8 17 C7.34 17.33 6.68 17.66 6 18 C6 13.71 6 9.42 6 5 C4.35 5 2.7 5 1 5 C0.67 3.35 0.34 1.7 0 0 Z " fill="#B48A12" transform="translate(102,22)"/>
<path d="M0 0 C1.4540625 0.0309375 1.4540625 0.0309375 2.9375 0.0625 C2.9375 1.0525 2.9375 2.0425 2.9375 3.0625 C3.5975 3.0625 4.2575 3.0625 4.9375 3.0625 C4.9375 2.0725 4.9375 1.0825 4.9375 0.0625 C7.5775 0.0625 10.2175 0.0625 12.9375 0.0625 C12.9375 1.0525 12.9375 2.0425 12.9375 3.0625 C13.5975 3.0625 14.2575 3.0625 14.9375 3.0625 C14.9375 2.0725 14.9375 1.0825 14.9375 0.0625 C18.25 -0.25 18.25 -0.25 21.9375 0.0625 C23.875 2.5625 23.875 2.5625 24.9375 5.0625 C23.2875 5.0625 21.6375 5.0625 19.9375 5.0625 C19.9375 3.7425 19.9375 2.4225 19.9375 1.0625 C18.6175 1.0625 17.2975 1.0625 15.9375 1.0625 C15.9375 2.3825 15.9375 3.7025 15.9375 5.0625 C14.2875 5.0625 12.6375 5.0625 10.9375 5.0625 C10.9375 4.0725 10.9375 3.0825 10.9375 2.0625 C9.6175 2.0625 8.2975 2.0625 6.9375 2.0625 C6.9375 3.0525 6.9375 4.0425 6.9375 5.0625 C4.9575 5.0625 2.9775 5.0625 0.9375 5.0625 C0.9375 4.0725 0.9375 3.0825 0.9375 2.0625 C-0.0525 2.0625 -1.0425 2.0625 -2.0625 2.0625 C-1.79856499 5.49480448 -1.79856499 5.49480448 -1.0625 9.0625 C-0.0725 9.7225 0.9175 10.3825 1.9375 11.0625 C2.125 14.6875 2.125 14.6875 1.9375 18.0625 C0.6175 18.0625 -0.7025 18.0625 -2.0625 18.0625 C-2.0625 19.3825 -2.0625 20.7025 -2.0625 22.0625 C-3.0525 22.0625 -4.0425 22.0625 -5.0625 22.0625 C-5.18625 21.134375 -5.18625 21.134375 -5.3125 20.1875 C-5.97464206 17.52760021 -5.97464206 17.52760021 -10.0625 16.0625 C-6.7625 16.0625 -3.4625 16.0625 -0.0625 16.0625 C-1.13651108 13.14732708 -1.84060176 11.28439824 -4.0625 9.0625 C-4.39002234 6.34795044 -4.1933425 3.81019241 -4.0625 1.0625 C-3.0625 0.0625 -3.0625 0.0625 0 0 Z " fill="#5C4E33" transform="translate(57.0625,24.9375)"/>
<path d="M0 0 C0.33 0 0.66 0 1 0 C1 15.51 1 31.02 1 47 C0.34 46.01 -0.32 45.02 -1 44 C-2.32 44 -3.64 44 -5 44 C-5.33 44.66 -5.66 45.32 -6 46 C-6 40.72 -6 35.44 -6 30 C-4.02 30 -2.04 30 0 30 C0 20.1 0 10.2 0 0 Z " fill="#7C5E14" transform="translate(115,24)"/>
<path d="M0 0 C3.73304045 1.6798682 7.10776096 3.84386655 10.5 6.125 C10.17 6.785 9.84 7.445 9.5 8.125 C8.90832031 7.75246094 8.31664062 7.37992188 7.70703125 6.99609375 C6.91683594 6.52300781 6.12664062 6.04992188 5.3125 5.5625 C4.53519531 5.08683594 3.75789063 4.61117187 2.95703125 4.12109375 C-0.03472914 2.90821792 -1.45824451 3.16127549 -4.5 4.125 C-6.18029994 5.10191857 -7.84928604 6.09888051 -9.5 7.125 C-10.16 7.125 -10.82 7.125 -11.5 7.125 C-11.5 8.775 -11.5 10.425 -11.5 12.125 C-10.18 12.125 -8.86 12.125 -7.5 12.125 C-7.5 16.745 -7.5 21.365 -7.5 26.125 C-8.16 26.125 -8.82 26.125 -9.5 26.125 C-9.5 22.495 -9.5 18.865 -9.5 15.125 C-11.15 15.125 -12.8 15.125 -14.5 15.125 C-14.17 12.485 -13.84 9.845 -13.5 7.125 C-19.44 7.125 -25.38 7.125 -31.5 7.125 C-31.5 6.465 -31.5 5.805 -31.5 5.125 C-30.90574219 5.15118408 -30.31148437 5.17736816 -29.69921875 5.2043457 C-26.96642258 5.30926935 -24.23405142 5.37362029 -21.5 5.4375 C-20.09814453 5.5003418 -20.09814453 5.5003418 -18.66796875 5.56445312 C-12.63015791 5.67000926 -8.97792107 4.86581788 -4.10742188 1.2199707 C-2.5 0.125 -2.5 0.125 0 0 Z " fill="#785E15" transform="translate(71.5,44.875)"/>
<path d="M0 0 C0.33 0 0.66 0 1 0 C1 9.9 1 19.8 1 30 C2.65 30 4.3 30 6 30 C6 34.29 6 38.58 6 43 C3.525 43.495 3.525 43.495 1 44 C0.67 44.99 0.34 45.98 0 47 C0 31.49 0 15.98 0 0 Z " fill="#664E15" transform="translate(34,24)"/>
<path d="M0 0 C1.32 0 2.64 0 4 0 C4 1.32 4 2.64 4 4 C5.98 4 7.96 4 10 4 C10 3.01 10 2.02 10 1 C10.66 1 11.32 1 12 1 C12 2.65 12 4.3 12 6 C2.1 6 -7.8 6 -18 6 C-18 4.35 -18 2.7 -18 1 C-17.01 1 -16.02 1 -15 1 C-15 1.99 -15 2.98 -15 4 C-13.02 4 -11.04 4 -9 4 C-9 3.01 -9 2.02 -9 1 C-7.68 1 -6.36 1 -5 1 C-5 1.99 -5 2.98 -5 4 C-3.35 4 -1.7 4 0 4 C0 2.68 0 1.36 0 0 Z " fill="#CE9F11" transform="translate(73,26)"/>
<path d="M0 0 C9.57 0 19.14 0 29 0 C29 0.99 29 1.98 29 3 C19.43 3 9.86 3 0 3 C0 2.01 0 1.02 0 0 Z " fill="#DDA90E" transform="translate(98,77)"/>
<path d="M0 0 C0.33 0.99 0.66 1.98 1 3 C2.65 3 4.3 3 6 3 C6 7.29 6 11.58 6 16 C4.35 16 2.7 16 1 16 C0.67 16.99 0.34 17.98 0 19 C0 12.73 0 6.46 0 0 Z " fill="#906F16" transform="translate(102,24)"/>
<path d="M0 0 C0.33 0.66 0.66 1.32 1 2 C2.65 2 4.3 2 6 2 C6 1.34 6 0.68 6 0 C6.66 0 7.32 0 8 0 C8 0.66 8 1.32 8 2 C9.65 2 11.3 2 13 2 C13 1.34 13 0.68 13 0 C13.99 0 14.98 0 16 0 C16 0.66 16 1.32 16 2 C16.99 2 17.98 2 19 2 C19 1.34 19 0.68 19 0 C19.99 0 20.98 0 22 0 C22 1.65 22 3.3 22 5 C14.74 5 7.48 5 0 5 C0 3.35 0 1.7 0 0 Z " fill="#E6B10E" transform="translate(101,15)"/>
<path d="M0 0 C9.24 0 18.48 0 28 0 C27.67 0.99 27.34 1.98 27 3 C18.42 3 9.84 3 1 3 C0.67 2.01 0.34 1.02 0 0 Z " fill="#EBB40E" transform="translate(56,33)"/>
<path d="M0 0 C0.66 0 1.32 0 2 0 C2 0.66 2 1.32 2 2 C3.32 2 4.64 2 6 2 C6 1.34 6 0.68 6 0 C6.99 0 7.98 0 9 0 C9 0.66 9 1.32 9 2 C10.32 2 11.64 2 13 2 C13 1.34 13 0.68 13 0 C13.99 0 14.98 0 16 0 C16 1.65 16 3.3 16 5 C8.74 5 1.48 5 -6 5 C-6 4.01 -6 3.02 -6 2 C-4.02 2 -2.04 2 0 2 C0 1.34 0 0.68 0 0 Z " fill="#E3AE0F" transform="translate(26,15)"/>
<path d="M0 0 C4.95 0 9.9 0 15 0 C15 0.33 15 0.66 15 1 C11.37 1 7.74 1 4 1 C3.67 1.99 3.34 2.98 3 4 C-7.23 4 -17.46 4 -28 4 C-27.34 3.67 -26.68 3.34 -26 3 C-25.67 2.34 -25.34 1.68 -25 1 C-16.75 1.33 -8.5 1.66 0 2 C0 1.34 0 0.68 0 0 Z " fill="#B68911" transform="translate(84,71)"/>
<path d="M0 0 C1.65 0 3.3 0 5 0 C5 4.62 5 9.24 5 14 C3.35 14 1.7 14 0 14 C-0.33 11.36 -0.66 8.72 -1 6 C-1.99 6 -2.98 6 -4 6 C-4 5.01 -4 4.02 -4 3 C-2.68 3 -1.36 3 0 3 C0 2.01 0 1.02 0 0 Z " fill="#F1B90D" transform="translate(103,40)"/>
<path d="M0 0 C2.31 0 4.62 0 7 0 C7.05399736 1.45792884 7.09279177 2.91642712 7.125 4.375 C7.14820313 5.18710937 7.17140625 5.99921875 7.1953125 6.8359375 C7 9 7 9 5 11 C4.01 10.67 3.02 10.34 2 10 C2.33 9.34 2.66 8.68 3 8 C-6.57 8.33 -16.14 8.66 -26 9 C-26 8.34 -26 7.68 -26 7 C-16.1 7 -6.2 7 4 7 C4 5.35 4 3.7 4 2 C3.34 2 2.68 2 2 2 C1.67 2.99 1.34 3.98 1 5 C0.67 3.35 0.34 1.7 0 0 Z " fill="#836A22" transform="translate(81,25)"/>
<path d="M0 0 C1.65 0 3.3 0 5 0 C5 4.62 5 9.24 5 14 C3.35 14 1.7 14 0 14 C0 9.38 0 4.76 0 0 Z " fill="#ECB50D" transform="translate(110,40)"/>
<path d="M0 0 C1.65 0 3.3 0 5 0 C5 4.62 5 9.24 5 14 C3.35 14 1.7 14 0 14 C0 9.38 0 4.76 0 0 Z " fill="#EBB40D" transform="translate(22,40)"/>
<path d="M0 0 C6.93 0 13.86 0 21 0 C21 2.97 21 5.94 21 9 C20.34 9.66 19.68 10.32 19 11 C19.33 8.03 19.66 5.06 20 2 C18.68 2 17.36 2 16 2 C16 2.66 16 3.32 16 4 C15.01 4 14.02 4 13 4 C13 3.34 13 2.68 13 2 C12.01 2 11.02 2 10 2 C10 2.66 10 3.32 10 4 C8.35 4 6.7 4 5 4 C5 3.34 5 2.68 5 2 C4.34 2 3.68 2 3 2 C3 2.66 3 3.32 3 4 C2.01 4 1.02 4 0 4 C0 2.68 0 1.36 0 0 Z " fill="#5C564B" transform="translate(104,13)"/>
<path d="M0 0 C7.26 0 14.52 0 22 0 C22 0.99 22 1.98 22 3 C14.74 3 7.48 3 0 3 C0 2.01 0 1.02 0 0 Z " fill="#F2BA0D" transform="translate(101,72)"/>
<path d="M0 0 C7.26 0 14.52 0 22 0 C22 0.99 22 1.98 22 3 C14.74 3 7.48 3 0 3 C0 2.01 0 1.02 0 0 Z " fill="#F0B90D" transform="translate(19,72)"/>
<path d="M0 0 C3.63 0 7.26 0 11 0 C11 1.32 11 2.64 11 4 C10.34 4 9.68 4 9 4 C9 5.32 9 6.64 9 8 C7.68 8 6.36 8 5 8 C5 7.34 5 6.68 5 6 C4.34 6 3.68 6 3 6 C3 5.01 3 4.02 3 3 C2.01 3 1.02 3 0 3 C0 2.01 0 1.02 0 0 Z " fill="#EAB40D" transform="translate(88,72)"/>
<path d="M0 0 C1.98 0 3.96 0 6 0 C6.33 1.65 6.66 3.3 7 5 C10.465 4.505 10.465 4.505 14 4 C14 4.66 14 5.32 14 6 C8.06 6 2.12 6 -4 6 C-3.01 5.34 -2.02 4.68 -1 4 C-0.27617533 1.94074861 -0.27617533 1.94074861 0 0 Z " fill="#705820" transform="translate(45,42)"/>
<path d="M0 0 C1.32 0 2.64 0 4 0 C4 4.62 4 9.24 4 14 C2.68 14 1.36 14 0 14 C0 9.38 0 4.76 0 0 Z " fill="#EAB40D" transform="translate(35,40)"/>
<path d="M0 0 C1.32 0 2.64 0 4 0 C4 4.62 4 9.24 4 14 C2.68 14 1.36 14 0 14 C0 9.38 0 4.76 0 0 Z " fill="#F0B80D" transform="translate(29,40)"/>
<path d="M0 0 C1.32 0 2.64 0 4 0 C4 4.62 4 9.24 4 14 C2.68 14 1.36 14 0 14 C0 9.38 0 4.76 0 0 Z " fill="#EDB60D" transform="translate(117,40)"/>
<path d="M0 0 C1.32 0 2.64 0 4 0 C4 1.32 4 2.64 4 4 C8.95 4.33 13.9 4.66 19 5 C19 5.66 19 6.32 19 7 C12.73 7 6.46 7 0 7 C0 4.69 0 2.38 0 0 Z " fill="#D1A010" transform="translate(82,43)"/>
<path d="M0 0 C6.27 0 12.54 0 19 0 C17.68 0.33 16.36 0.66 15 1 C15 1.99 15 2.98 15 4 C13.68 4 12.36 4 11 4 C11 3.34 11 2.68 11 2 C10.01 2 9.02 2 8 2 C8 2.66 8 3.32 8 4 C6.68 4 5.36 4 4 4 C4 3.34 4 2.68 4 2 C3.34 2 2.68 2 2 2 C2 2.66 2 3.32 2 4 C0.35 4 -1.3 4 -3 4 C-2.67 3.34 -2.34 2.68 -2 2 C-1.34 2.33 -0.68 2.66 0 3 C0 2.01 0 1.02 0 0 Z " fill="#544935" transform="translate(24,13)"/>
<path d="M0 0 C4.62 0 9.24 0 14 0 C14 1.32 14 2.64 14 4 C9.71 4 5.42 4 1 4 C0.67 2.68 0.34 1.36 0 0 Z " fill="#A27C12" transform="translate(27,21)"/>
<path d="M0 0 C1.32 0 2.64 0 4 0 C4 4.29 4 8.58 4 13 C2.68 13 1.36 13 0 13 C0 8.71 0 4.42 0 0 Z " fill="#42361A" transform="translate(29,54)"/>
<path d="M0 0 C1.32 0 2.64 0 4 0 C4 4.29 4 8.58 4 13 C2.68 13 1.36 13 0 13 C0 8.71 0 4.42 0 0 Z " fill="#423619" transform="translate(29,27)"/>
<path d="M0 0 C1.32 0 2.64 0 4 0 C4 3.96 4 7.92 4 12 C2.68 12 1.36 12 0 12 C0 8.04 0 4.08 0 0 Z " fill="#4D3D19" transform="translate(93,56)"/>
<path d="M0 0 C0.99 0 1.98 0 3 0 C3 3.96 3 7.92 3 12 C1.68 12 0.36 12 -1 12 C-1.02687279 10.18757948 -1.04633715 8.37504767 -1.0625 6.5625 C-1.07410156 5.55316406 -1.08570313 4.54382812 -1.09765625 3.50390625 C-1 1 -1 1 0 0 Z " fill="#4D3E18" transform="translate(52,56)"/>
<path d="M0 0 C1.32 0.33 2.64 0.66 4 1 C4 4.63 4 8.26 4 12 C2.68 12 1.36 12 0 12 C0 8.04 0 4.08 0 0 Z " fill="#4D3E18" transform="translate(45,56)"/>
<path d="M0 0 C11.22 0 22.44 0 34 0 C34 0.99 34 1.98 34 3 C32.35 3 30.7 3 29 3 C29 2.34 29 1.68 29 1 C19.76 1 10.52 1 1 1 C0.67 1.66 0.34 2.32 0 3 C0 2.01 0 1.02 0 0 Z " fill="#B68C11" transform="translate(16,77)"/>
<path d="M0 0 C0.99 0 1.98 0 3 0 C3 0.99 3 1.98 3 3 C4.98 3 6.96 3 9 3 C9 2.01 9 1.02 9 0 C9.66 0 10.32 0 11 0 C11 1.65 11 3.3 11 5 C5.06 5 -0.88 5 -7 5 C-7 4.67 -7 4.34 -7 4 C-4.69 4 -2.38 4 0 4 C0 2.68 0 1.36 0 0 Z " fill="#E6B10E" transform="translate(74,27)"/>
<path d="M0 0 C2.31 0 4.62 0 7 0 C7 4.62 7 9.24 7 14 C6.34 14 5.68 14 5 14 C5 10.37 5 6.74 5 3 C3.35 3 1.7 3 0 3 C0 2.01 0 1.02 0 0 Z " fill="#7E6214" transform="translate(57,57)"/>
<path d="M0 0 C0.99 0 1.98 0 3 0 C3 4.29 3 8.58 3 13 C2.01 13 1.02 13 0 13 C0 8.71 0 4.42 0 0 Z " fill="#2E271A" transform="translate(23,54)"/>
<path d="M0 0 C0.33 0 0.66 0 1 0 C1 1.98 1 3.96 1 6 C2.32 6 3.64 6 5 6 C5 7.65 5 9.3 5 11 C6.32 11 7.64 11 9 11 C9 9.68 9 8.36 9 7 C9.99 7 10.98 7 12 7 C12 8.65 12 10.3 12 12 C8.37 12 4.74 12 1 12 C1.99 11.67 2.98 11.34 4 11 C4 9.68 4 8.36 4 7 C2.68 7 1.36 7 0 7 C0 4.69 0 2.38 0 0 Z " fill="#8E6D16" transform="translate(82,36)"/>
<path d="M0 0 C0.99 0 1.98 0 3 0 C3 3.96 3 7.92 3 12 C2.01 12 1.02 12 0 12 C0 8.04 0 4.08 0 0 Z " fill="#29251B" transform="translate(104,55)"/>
<path d="M0 0 C0.99 0 1.98 0 3 0 C3 3.96 3 7.92 3 12 C2.01 12 1.02 12 0 12 C0 8.04 0 4.08 0 0 Z " fill="#25211B" transform="translate(111,55)"/>
<path d="M0 0 C0.99 0 1.98 0 3 0 C3 3.96 3 7.92 3 12 C2.01 12 1.02 12 0 12 C0 8.04 0 4.08 0 0 Z " fill="#31291A" transform="translate(87,56)"/>
<path d="M0 0 C0.99 0 1.98 0 3 0 C3 3.96 3 7.92 3 12 C2.01 12 1.02 12 0 12 C0 8.04 0 4.08 0 0 Z " fill="#26211A" transform="translate(36,55)"/>
<path d="M0 0 C0.99 0 1.98 0 3 0 C3 3.96 3 7.92 3 12 C2.01 12 1.02 12 0 12 C0 8.04 0 4.08 0 0 Z " fill="#2A241A" transform="translate(117,55)"/>
<path d="M0 0 C0.99 0 1.98 0 3 0 C3 3.96 3 7.92 3 12 C2.01 12 1.02 12 0 12 C0 8.04 0 4.08 0 0 Z " fill="#29241B" transform="translate(104,27)"/>
<path d="M0 0 C0.99 0 1.98 0 3 0 C3 3.96 3 7.92 3 12 C2.01 12 1.02 12 0 12 C0 8.04 0 4.08 0 0 Z " fill="#24211C" transform="translate(117,27)"/>
<path d="M0 0 C0.99 0 1.98 0 3 0 C3 3.96 3 7.92 3 12 C2.01 12 1.02 12 0 12 C0 8.04 0 4.08 0 0 Z " fill="#26221B" transform="translate(111,27)"/>
<path d="M0 0 C0.99 0 1.98 0 3 0 C3 3.96 3 7.92 3 12 C2.01 12 1.02 12 0 12 C0 8.04 0 4.08 0 0 Z " fill="#25201B" transform="translate(36,27)"/>
<path d="M0 0 C0.99 0 1.98 0 3 0 C3 3.96 3 7.92 3 12 C2.01 12 1.02 12 0 12 C0 8.04 0 4.08 0 0 Z " fill="#24201C" transform="translate(23,27)"/>
<path d="M0 0 C3.96 0 7.92 0 12 0 C11.67 0.99 11.34 1.98 11 3 C7.37 3 3.74 3 0 3 C0 2.01 0 1.02 0 0 Z " fill="#ECB50E" transform="translate(43,72)"/>
<path d="M0 0 C0.99 0.495 0.99 0.495 2 1 C1.67 2.32 1.34 3.64 1 5 C2.65614657 5.38218767 4.32457024 5.71395102 6 6 C6.33 5.67 6.66 5.34 7 5 C8.66617115 4.95936168 10.33388095 4.957279 12 5 C10.68 5.33 9.36 5.66 8 6 C8 7.65 8 9.3 8 11 C6.68 11 5.36 11 4 11 C4 9.35 4 7.7 4 6 C2.68 6 1.36 6 0 6 C0 4.02 0 2.04 0 0 Z " fill="#3F3C3D" transform="translate(83,36)"/>
<path d="M0 0 C2.31 0 4.62 0 7 0 C7 0.99 7 1.98 7 3 C5.35 3 3.7 3 2 3 C2 6.63 2 10.26 2 14 C1.67 14 1.34 14 1 14 C0.67 9.38 0.34 4.76 0 0 Z " fill="#3C3119" transform="translate(77,57)"/>
<path d="M0 0 C3.3125 -0.3125 3.3125 -0.3125 7 0 C8.9375 2.5 8.9375 2.5 10 5 C8.35 5 6.7 5 5 5 C5 3.68 5 2.36 5 1 C3.68 1 2.36 1 1 1 C1 2.32 1 3.64 1 5 C0.01 5 -0.98 5 -2 5 C-2 4.34 -2 3.68 -2 3 C-1.34 3 -0.68 3 0 3 C0 2.01 0 1.02 0 0 Z " fill="#342C21" transform="translate(72,25)"/>
<path d="M0 0 C2.64 0 5.28 0 8 0 C7.01 0.495 7.01 0.495 6 1 C6 2.32 6 3.64 6 5 C4.68 5 3.36 5 2 5 C2 4.34 2 3.68 2 3 C1.34 3 0.68 3 0 3 C0 2.01 0 1.02 0 0 Z " fill="#C59610" transform="translate(91,75)"/>
<path d="M0 0 C2.64 0 5.28 0 8 0 C8 1.65 8 3.3 8 5 C7.34 5 6.68 5 6 5 C6 4.01 6 3.02 6 2 C4.68 2 3.36 2 2 2 C1.67 2.99 1.34 3.98 1 5 C0.67 3.35 0.34 1.7 0 0 Z " fill="#5F5439" transform="translate(62,25)"/>
<path d="M0 0 C0.33 0 0.66 0 1 0 C1.03738281 0.77085938 1.07476562 1.54171875 1.11328125 2.3359375 C1.17902344 3.33882812 1.24476562 4.34171875 1.3125 5.375 C1.37050781 6.37273438 1.42851563 7.37046875 1.48828125 8.3984375 C1.65714844 9.25695312 1.82601562 10.11546875 2 11 C2.99 11.66 3.98 12.32 5 13 C1.7 13 -1.6 13 -5 13 C-3.68 12.34 -2.36 11.68 -1 11 C-0.29626983 8.35212912 -0.29626983 8.35212912 -0.25 5.375 C-0.19328125 4.37210938 -0.1365625 3.36921875 -0.078125 2.3359375 C-0.05234375 1.56507812 -0.0265625 0.79421875 0 0 Z " fill="#F4BC0D" transform="translate(50,57)"/>
<path d="M0 0 C0.33 0 0.66 0 1 0 C1 4.62 1 9.24 1 14 C0.67 14 0.34 14 0 14 C-0.33 11.36 -0.66 8.72 -1 6 C-1.99 6 -2.98 6 -4 6 C-4 5.01 -4 4.02 -4 3 C-2.68 3 -1.36 3 0 3 C0 2.01 0 1.02 0 0 Z " fill="#D4A310" transform="translate(103,40)"/>
<path d="M0 0 C0 1.65 0 3.3 0 5 C-2.31 5 -4.62 5 -7 5 C-6.34 4.67 -5.68 4.34 -5 4 C-5 3.01 -5 2.02 -5 1 C-1.125 0 -1.125 0 0 0 Z " fill="#D5A40F" transform="translate(108,67)"/>
<path d="M0 0 C0.66 0 1.32 0 2 0 C2 1.65 2 3.3 2 5 C-0.97 5 -3.94 5 -7 5 C-6.67 4.34 -6.34 3.68 -6 3 C-4.02 3 -2.04 3 0 3 C0 2.01 0 1.02 0 0 Z " fill="#EFB70C" transform="translate(121,15)"/>
<path d="M0 0 C0.99 0 1.98 0 3 0 C3 0.66 3 1.32 3 2 C3.99 2 4.98 2 6 2 C6.33 1.34 6.66 0.68 7 0 C7 0.99 7 1.98 7 3 C2.6835078 3.76173392 -0.74433453 4.16063604 -5 3 C-5 2.67 -5 2.34 -5 2 C-3.35 2 -1.7 2 0 2 C0 1.34 0 0.68 0 0 Z " fill="#C09415" transform="translate(114,15)"/>
<path d="M0 0 C2.31 0 4.62 0 7 0 C7 0.99 7 1.98 7 3 C4.69 3 2.38 3 0 3 C0 2.01 0 1.02 0 0 Z " fill="#372E1A" transform="translate(57,57)"/>
<path d="M0 0 C1.98 0 3.96 0 6 0 C6.33 0.66 6.66 1.32 7 2 C6.01 2 5.02 2 4 2 C4 2.99 4 3.98 4 5 C2.68 5 1.36 5 0 5 C0 3.35 0 1.7 0 0 Z " fill="#615D57" transform="translate(95,41)"/>
<path d="M0 0 C0.99 0 1.98 0 3 0 C3 1.32 3 2.64 3 4 C4.65 4 6.3 4 8 4 C8 4.33 8 4.66 8 5 C5.36 5 2.72 5 0 5 C0 3.35 0 1.7 0 0 Z " fill="#DFAB0F" transform="translate(55,27)"/>
<path d="M0 0 C0.66 0.33 1.32 0.66 2 1 C1.67 1.66 1.34 2.32 1 3 C1.66 3.33 2.32 3.66 3 4 C2.67 4.66 2.34 5.32 2 6 C0.68 6 -0.64 6 -2 6 C-2 4.35 -2 2.7 -2 1 C-1.34 0.67 -0.68 0.34 0 0 Z " fill="#D6A50F" transform="translate(62,51)"/>
<path d="M0 0 C1.98 0 3.96 0 6 0 C6 0.99 6 1.98 6 3 C6.99 3.33 7.98 3.66 9 4 C9 4.33 9 4.66 9 5 C7.35 5 5.7 5 4 5 C4 3.68 4 2.36 4 1 C2.68 0.67 1.36 0.34 0 0 Z " fill="#332B23" transform="translate(54,25)"/>
<path d="M0 0 C1.98 0 3.96 0 6 0 C6.66 1.98 7.32 3.96 8 6 C7.01 6 6.02 6 5 6 C4.87625 5.071875 4.87625 5.071875 4.75 4.125 C4.18741541 1.81562433 4.18741541 1.81562433 1.9375 0.75 C1.298125 0.5025 0.65875 0.255 0 0 Z " fill="#2D3143" transform="translate(47,41)"/>
</svg>
